<?xml version="1.0" encoding="UTF-8"?>
<svg version="1.1" xmlns="http://www.w3.org/2000/svg" width="16" height="16">
<path d="M0 0 C2.5 1.5 2.5 1.5 4 4 C4.791013 8.02098277 4.62153384 10.96411027 2.5 14.5 C-1.03588973 16.62153384 -3.97901723 16.791013 -8 16 C-10.5 14.5 -10.5 14.5 -12 12 C-12.791013 7.97901723 -12.62153384 5.03588973 -10.5 1.5 C-6.96411027 -0.62153384 -4.02098277 -0.791013 0 0 Z " fill="#725120" transform="translate(12,0)"/>
<path d="M0 0 C2.5 2 2.5 2 4 4 C3.67 4.99 3.34 5.98 3 7 C2.62875 6.525625 2.2575 6.05125 1.875 5.5625 C-0.70287957 3.41426703 -2.68257217 3.20310783 -6 3 C-8.31980946 3.82342532 -8.31980946 3.82342532 -10 5 C-9.72325227 8.41322198 -9.3932984 9.66132637 -6.75 11.9375 C-4.0480183 13.29896925 -4.0480183 13.29896925 -1.375 12.25 C-0.59125 11.8375 0.1925 11.425 1 11 C1.99 10.67 2.98 10.34 4 10 C2.84826645 12.46800047 1.95216435 14.04783565 0 16 C-6.88888889 16.66666667 -6.88888889 16.66666667 -10.5 14.5 C-12.62153384 10.96411027 -12.791013 8.02098277 -12 4 C-9.19071158 -0.68214736 -5.04358962 -1.07486336 0 0 Z " fill="#EEE4D0" transform="translate(12,0)"/>
<path d="M0 0 C-0.33 1.32 -0.66 2.64 -1 4 C-1.66 4 -2.32 4 -3 4 C-3 3.34 -3 2.68 -3 2 C-5.99332739 2.9977758 -6.94766315 3.7522025 -9 6 C-9.33 4.68 -9.66 3.36 -10 2 C-6.27511755 -0.66063032 -4.42132508 -1.38955931 0 0 Z " fill="#9F4625" transform="translate(11,3)"/>
<path d="M0 0 C1.65 1.32 3.3 2.64 5 4 C4.67 4.99 4.34 5.98 4 7 C2.02 7.33 0.04 7.66 -2 8 C-1.34 7.01 -0.68 6.02 0 5 C-0.33 4.34 -0.66 3.68 -1 3 C-0.67 2.01 -0.34 1.02 0 0 Z " fill="#B2A284" transform="translate(11,3)"/>
<path d="M0 0 C2.25 -0.25 2.25 -0.25 5 0 C7.3125 2 7.3125 2 9 4 C8.67 4.99 8.34 5.98 8 7 C7.566875 6.525625 7.13375 6.05125 6.6875 5.5625 C4.97690387 3.76313043 4.97690387 3.76313043 2 3 C2 2.34 2 1.68 2 1 C1.34 0.67 0.68 0.34 0 0 Z " fill="#F9F1DD" transform="translate(7,0)"/>
<path d="M0 0 C-1.15173355 2.46800047 -2.04783565 4.04783565 -4 6 C-4.99 5.67 -5.98 5.34 -7 5 C-2.25 0 -2.25 0 0 0 Z " fill="#F8EFDC" transform="translate(16,10)"/>
<path d="M0 0 C-1.65 1.32 -3.3 2.64 -5 4 C-6.32 3.34 -7.64 2.68 -9 2 C-8.34 2 -7.68 2 -7 2 C-6.67 1.34 -6.34 0.68 -6 0 C-2.49056604 -1.24528302 -2.49056604 -1.24528302 0 0 Z " fill="#A55840" transform="translate(15,10)"/>
<path d="M0 0 C0.99 0 1.98 0 3 0 C3 0.66 3 1.32 3 2 C4.32 2.33 5.64 2.66 7 3 C3.71023192 4.09658936 2.28696233 3.79953138 -1 3 C-0.67 2.01 -0.34 1.02 0 0 Z " fill="#8B7750" transform="translate(5,5)"/>
</svg>
