<?xml version="1.0" encoding="UTF-8"?>
<svg version="1.1" xmlns="http://www.w3.org/2000/svg" width="64" height="64">
<path d="M0 0 C1.02463852 -0.00637985 2.04927704 -0.0127597 3.10496521 -0.01933289 C4.75662437 -0.02100212 4.75662437 -0.02100212 6.44165039 -0.02270508 C7.57832657 -0.02603348 8.71500275 -0.02936188 9.88612366 -0.03279114 C12.2893127 -0.03785226 14.69250876 -0.04019971 17.09570312 -0.04003906 C20.77168344 -0.04222584 24.44736378 -0.06039128 28.12329102 -0.0793457 C30.45857645 -0.08227972 32.7938633 -0.08426446 35.12915039 -0.08520508 C36.77777321 -0.09598335 36.77777321 -0.09598335 38.45970154 -0.10697937 C39.48749222 -0.10390274 40.5152829 -0.10082611 41.57421875 -0.09765625 C42.47482529 -0.09908127 43.37543182 -0.10050629 44.30332947 -0.10197449 C47.41149267 0.19956109 50.5756282 0.86908524 52.85180664 3.14526367 C52.95997877 4.4796922 53.00079391 5.81969666 53.01293945 7.15844727 C53.022547 8.00958099 53.03215454 8.86071472 53.04205322 9.73764038 C53.0463031 10.66364044 53.05055298 11.5896405 53.05493164 12.54370117 C53.06063171 13.48960114 53.06633179 14.4355011 53.07220459 15.4100647 C53.08167028 17.41586177 53.08819477 19.42167451 53.09204102 21.42749023 C53.10174378 24.50035693 53.13275122 27.57255423 53.16430664 30.64526367 C53.17083661 32.59057218 53.1760871 34.5358855 53.17993164 36.48120117 C53.19227844 37.40315277 53.20462524 38.32510437 53.21734619 39.2749939 C53.21434509 40.13243195 53.21134399 40.98987 53.20825195 41.87329102 C53.2137204 43.00460953 53.2137204 43.00460953 53.21929932 44.15878296 C52.74146977 46.74168937 51.93827011 47.58076619 49.85180664 49.14526367 C46.8780684 50.21782914 44.0459999 50.28147977 40.90307617 50.30639648 C39.92170685 50.31600403 38.94033752 50.32561157 37.92922974 50.33551025 C36.34789749 50.34188507 36.34789749 50.34188507 34.73461914 50.34838867 C33.09975052 50.35693878 33.09975052 50.35693878 31.43185425 50.36566162 C29.12702401 50.375103 26.82218033 50.38164218 24.51733398 50.38549805 C20.99707453 50.39520777 17.47739797 50.42624166 13.95727539 50.45776367 C11.71639344 50.46429364 9.47550731 50.46954414 7.23461914 50.47338867 C6.18444611 50.48573547 5.13427307 50.49808228 4.05227661 50.51080322 C-1.62886015 50.49354079 -6.84169542 50.45176161 -11.14819336 46.14526367 C-11.2512075 44.80532751 -11.28667789 43.46008402 -11.29345703 42.11621094 C-11.29983688 41.26184952 -11.30621674 40.4074881 -11.31278992 39.52723694 C-11.31390274 38.59809982 -11.31501556 37.66896271 -11.31616211 36.71166992 C-11.31949051 35.76339828 -11.32281891 34.81512665 -11.32624817 33.83811951 C-11.33132155 31.82811978 -11.33365637 29.81811159 -11.33349609 27.80810547 C-11.33568158 24.72438748 -11.35383019 21.64102761 -11.37280273 18.55737305 C-11.3757367 16.60880657 -11.37772148 14.66023838 -11.37866211 12.71166992 C-11.38584763 11.78455704 -11.39303314 10.85744415 -11.4004364 9.90223694 C-11.39735977 9.04472336 -11.39428314 8.18720978 -11.39111328 7.30371094 C-11.3925383 6.54727798 -11.39396332 5.79084503 -11.39543152 5.01148987 C-11.14819336 3.14526367 -11.14819336 3.14526367 -9.14819336 1.14526367 C-6.08861993 0.10022376 -3.21595449 0.01362349 0 0 Z " fill="#C59320" transform="translate(11.148193359375,6.854736328125)"/>
<path d="M0 0 C2.58361518 -0.05407567 5.16609255 -0.093707 7.75 -0.125 C8.84441406 -0.15013672 8.84441406 -0.15013672 9.9609375 -0.17578125 C17.06004701 -0.24031861 17.06004701 -0.24031861 20 2 C20.9375 4.9375 20.9375 4.9375 21 8 C19.5625 9.875 19.5625 9.875 18 11 C18.680625 11.53625 19.36125 12.0725 20.0625 12.625 C22 15 22 15 21.6875 18.1875 C21.460625 19.115625 21.23375 20.04375 21 21 C22.1490712 22.2981424 22.1490712 22.2981424 25 23 C25.99 22.67 26.98 22.34 28 22 C27.27103516 21.17822266 27.27103516 21.17822266 26.52734375 20.33984375 C23.84890633 16.23655983 24.36175707 11.72720588 25 7 C27.1079991 3.31100158 29.1215705 1.58757976 33 0 C35.47265625 -0.23046875 35.47265625 -0.23046875 38.0625 -0.1875 C39.34833984 -0.17783203 39.34833984 -0.17783203 40.66015625 -0.16796875 C43 0 43 0 46 1 C46 2.98 46 4.96 46 7 C43 6 43 6 41 3 C37.89705623 2.60387952 35.8890601 2.44816959 33.1875 4.125 C30.51564904 8.34371203 30.90605358 12.18928625 31.9375 16.875 C32.28080147 18.25275293 32.631306 19.62882395 33 21 C37.59583114 21.49629779 37.59583114 21.49629779 41.80078125 19.88671875 C43.25599455 18.65378147 44.63479157 17.33191067 46 16 C45.67 17.98 45.34 19.96 45 22 C47.64 22 50.28 22 53 22 C52.34 23.32 51.68 24.64 51 26 C50.01 25.67 49.02 25.34 48 25 C48 25.66 48 26.32 48 27 C48.99 27.33 49.98 27.66 51 28 C51.495 31.465 51.495 31.465 52 35 C50.35 34.67 48.7 34.34 47 34 C47 33.01 47 32.02 47 31 C46.67 31.99 46.34 32.98 46 34 C44.68 33.67 43.36 33.34 42 33 C42 32.34 42 31.68 42 31 C39.36 30.67 36.72 30.34 34 30 C34.5053125 30.34933594 35.010625 30.69867188 35.53125 31.05859375 C36.1809375 31.51363281 36.830625 31.96867187 37.5 32.4375 C38.47453125 33.11619141 38.47453125 33.11619141 39.46875 33.80859375 C39.9740625 34.20175781 40.479375 34.59492187 41 35 C41 35.33 41 35.66 41 36 C37.7 36 34.4 36 31 36 C30.67 35.01 30.34 34.02 30 33 C29.34 32.505 28.68 32.01 28 31.5 C26 30 26 30 25 27 C23.74335022 29.90600261 23 31.79604584 23 35 C22.67 34.34 22.34 33.68 22 33 C19.97536745 32.34786708 19.97536745 32.34786708 18 32 C18.33 31.67 18.66 31.34 19 31 C18.34 30.34 17.68 29.68 17 29 C17.66 29 18.32 29 19 29 C18.67 27.02 18.34 25.04 18 23 C17.34 23.33 16.68 23.66 16 24 C13.44612508 24.07173806 10.92723239 24.09287732 8.375 24.0625 C5.94125 24.041875 3.5075 24.02125 1 24 C1.33 16.74 1.66 9.48 2 2 C1.34 2 0.68 2 0 2 C0 1.34 0 0.68 0 0 Z " fill="#C08D1A" transform="translate(9,20)"/>
<path d="M0 0 C1.65 0 3.3 0 5 0 C5.33 0.66 5.66 1.32 6 2 C8.05376006 2.61365708 8.05376006 2.61365708 10.4375 3 C14.78082192 3.78082192 14.78082192 3.78082192 17 6 C17.99 6 18.98 6 20 6 C20.02467609 11.51757479 20.04284856 17.03511761 20.05493164 22.55273438 C20.05996763 24.43066975 20.06679671 26.3086012 20.07543945 28.18652344 C20.08753713 30.88217132 20.09323557 33.57776747 20.09765625 36.2734375 C20.10281754 37.11619232 20.10797882 37.95894714 20.11329651 38.82723999 C20.11387171 44.77225659 20.11387171 44.77225659 19 47 C18.34 47 17.68 47 17 47 C16.71125 45.865625 16.4225 44.73125 16.125 43.5625 C15.75375 42.386875 15.3825 41.21125 15 40 C14.34 39.67 13.68 39.34 13 39 C13 38.34 13 37.68 13 37 C14.98 36.505 14.98 36.505 17 36 C14.6921509 34.84607545 12.52769669 34.46562834 10 34 C10 32.35 10 30.7 10 29 C8.9790625 30.2684375 8.9790625 30.2684375 7.9375 31.5625 C5 34 5 34 1.1875 33.8125 C0.135625 33.544375 -0.91625 33.27625 -2 33 C-4.755214 26.60079329 -5.54466438 22.59299408 -3 16 C0.51824511 13.65450326 1.85775694 13.42008597 6 14 C8.875 16.5 8.875 16.5 11 19 C11 17.02 11 15.04 11 13 C10.01 13 9.02 13 8 13 C8 12.01 8 11.02 8 10 C7.01 9.67 6.02 9.34 5 9 C5.66 8.67 6.32 8.34 7 8 C9 9 9 9 10 10 C10.66 8.35 11.32 6.7 12 5 C11.01 5 10.02 5 9 5 C8.67 5.99 8.34 6.98 8 8 C7.01 7.34 6.02 6.68 5 6 C4.01 6.33 3.02 6.66 2 7 C-0.6875 5.5625 -0.6875 5.5625 -3 4 C-2.34 3.01 -1.68 2.02 -1 1 C-1 1.99 -1 2.98 -1 4 C-0.01 3.67 0.98 3.34 2 3 C1.34 2.01 0.68 1.02 0 0 Z " fill="#C3921F" transform="translate(44,8)"/>
<path d="M0 0 C2.58361518 -0.05407567 5.16609255 -0.093707 7.75 -0.125 C8.84441406 -0.15013672 8.84441406 -0.15013672 9.9609375 -0.17578125 C17.06004701 -0.24031861 17.06004701 -0.24031861 20 2 C20.9375 4.9375 20.9375 4.9375 21 8 C19.5625 9.875 19.5625 9.875 18 11 C18.680625 11.53625 19.36125 12.0725 20.0625 12.625 C22 15 22 15 22.0625 18.0625 C21 21 21 21 18.921875 22.671875 C15.27337782 24.33028281 12.10156183 24.33243358 8.1875 24.1875 C5.815625 24.125625 3.44375 24.06375 1 24 C1.33 16.74 1.66 9.48 2 2 C1.34 2 0.68 2 0 2 C0 1.34 0 0.68 0 0 Z " fill="#0B0A08" transform="translate(9,20)"/>
<path d="M0 0 C1.28583984 0.00966797 1.28583984 0.00966797 2.59765625 0.01953125 C4.9375 0.1875 4.9375 0.1875 7.9375 1.1875 C7.9375 3.1675 7.9375 5.1475 7.9375 7.1875 C4.9375 6.1875 4.9375 6.1875 2.9375 3.1875 C-0.16544377 2.79137952 -2.1734399 2.63566959 -4.875 4.3125 C-7.54685096 8.53121203 -7.15644642 12.37678625 -6.125 17.0625 C-5.78169853 18.44025293 -5.431194 19.81632395 -5.0625 21.1875 C-0.46666886 21.68379779 -0.46666886 21.68379779 3.73828125 20.07421875 C5.19349455 18.84128147 6.57229157 17.51941067 7.9375 16.1875 C7.6875 19.0625 7.6875 19.0625 6.9375 22.1875 C2.88327459 24.86650358 -1.36911888 24.86958307 -6.0625 24.1875 C-11.52591463 21.26067073 -11.52591463 21.26067073 -13.0625 18.1875 C-13.56510166 13.07085036 -13.90352072 8.65928626 -11.3125 4.125 C-7.59408614 0.92303251 -4.91413831 -0.08153171 0 0 Z " fill="#0E0C08" transform="translate(47.0625,19.8125)"/>
<path d="M0 0 C2.475 0.99 2.475 0.99 5 2 C4.67 2.99 4.34 3.98 4 5 C5.65 4.67 7.3 4.34 9 4 C9.625 6.375 9.625 6.375 10 9 C9.34 9.66 8.68 10.32 8 11 C8.33 11.99 8.66 12.98 9 14 C7.68 14.33 6.36 14.66 5 15 C5 18.11227195 5.45627049 20.94152152 6 24 C5.01 24 4.02 24 3 24 C2.83312552 26.41645782 2.83312552 26.41645782 3 29 C3.66 29.66 4.32 30.32 5 31 C4.01 31 3.02 31 2 31 C1.505 32.485 1.505 32.485 1 34 C0.67 34 0.34 34 0 34 C0 22.78 0 11.56 0 0 Z " fill="#C3901C" transform="translate(0,16)"/>
<path d="M0 0 C2.875 0.3125 2.875 0.3125 6 1 C8 4 8 4 7.75 7.125 C7.5025 8.07375 7.255 9.0225 7 10 C6.01 10.495 6.01 10.495 5 11 C5.680625 11.53625 6.36125 12.0725 7.0625 12.625 C9 15 9 15 9.0625 18.0625 C8 21 8 21 5.4375 22.875 C4.2309375 23.431875 4.2309375 23.431875 3 24 C2.67 23.34 2.34 22.68 2 22 C1.34 21.67 0.68 21.34 0 21 C0.66 20.67 1.32 20.34 2 20 C2 18.35 2 16.7 2 15 C-0.31 14.34 -2.62 13.68 -5 13 C-3.03617993 11.49440461 -1.21736634 10.10868317 1 9 C1.08886184 5.80097361 0.91058531 3.07322544 0 0 Z " fill="#100E08" transform="translate(22,20)"/>
<path d="M0 0 C7.17160012 -0.05073147 14.3431539 -0.08574687 21.51489258 -0.10986328 C23.9543633 -0.1199176 26.39382197 -0.13356292 28.83325195 -0.15087891 C32.34068779 -0.17515182 35.84796421 -0.18648891 39.35546875 -0.1953125 C40.44522507 -0.20563507 41.53498138 -0.21595764 42.65776062 -0.22659302 C44.18878166 -0.22681961 44.18878166 -0.22681961 45.75073242 -0.22705078 C47.09309212 -0.23371262 47.09309212 -0.23371262 48.46257019 -0.24050903 C51.33182186 0.03145157 53.44167747 0.67650141 56 2 C56.8125 4.625 56.8125 4.625 57 7 C55.68 7.33 54.36 7.66 53 8 C52.505 6.515 52.505 6.515 52 5 C51.278125 5.04125 50.55625 5.0825 49.8125 5.125 C46.79270631 4.99078695 44.73064271 4.24829381 42 3 C42 2.34 42 1.68 42 1 C28.14 1 14.28 1 0 1 C0 0.67 0 0.34 0 0 Z " fill="#DBAB34" transform="translate(7,7)"/>
<path d="M0 0 C2.97 0.495 2.97 0.495 6 1 C5.76023437 1.82177734 5.76023437 1.82177734 5.515625 2.66015625 C4.29817649 8.18479004 4.07972803 14.04442206 6.5 19.1875 C6.995 19.785625 7.49 20.38375 8 21 C1.375 22.25 1.375 22.25 -2 20 C-1.34 19.01 -0.68 18.02 0 17 C0.16699232 13.87478167 0.16699232 13.87478167 0 11 C-1.65 10.67 -3.3 10.34 -5 10 C-4.360625 9.835 -3.72125 9.67 -3.0625 9.5 C-0.83880759 8.218214 -0.83880759 8.218214 -0.51171875 6.0859375 C-0.2724022 4.06424845 -0.13106972 2.03158061 0 0 Z " fill="#C5982D" transform="translate(30,22)"/>
<path d="M0 0 C2.64 0 5.28 0 8 0 C7.34 1.32 6.68 2.64 6 4 C5.01 3.67 4.02 3.34 3 3 C3 3.66 3 4.32 3 5 C3.99 5.33 4.98 5.66 6 6 C6.33 8.31 6.66 10.62 7 13 C5.35 12.67 3.7 12.34 2 12 C2 11.01 2 10.02 2 9 C1.67 9.99 1.34 10.98 1 12 C-0.32 11.67 -1.64 11.34 -3 11 C-3 10.34 -3 9.68 -3 9 C-4.32 8.67 -5.64 8.34 -7 8 C-6.67 7.34 -6.34 6.68 -6 6 C-5.01 6.33 -4.02 6.66 -3 7 C-3.33 6.01 -3.66 5.02 -4 4 C-2.35 4 -0.7 4 1 4 C0.67 2.68 0.34 1.36 0 0 Z " fill="#BB8713" transform="translate(54,42)"/>
<path d="M0 0 C0.67546875 0.30035156 1.3509375 0.60070313 2.046875 0.91015625 C2.93890625 1.29042969 3.8309375 1.67070312 4.75 2.0625 C5.63171875 2.44535156 6.5134375 2.82820312 7.421875 3.22265625 C10.22073658 4.06655542 11.27435891 3.75251395 14 3 C14.66 3.66 15.32 4.32 16 5 C16.33 4.34 16.66 3.68 17 3 C17.99 3 18.98 3 20 3 C20.33 3.99 20.66 4.98 21 6 C20.01 6.495 20.01 6.495 19 7 C19.99 7.66 20.98 8.32 22 9 C20.35 9 18.7 9 17 9 C17 8.34 17 7.68 17 7 C16.01 7 15.02 7 14 7 C14.66 7.33 15.32 7.66 16 8 C16 8.66 16 9.32 16 10 C13.69 10 11.38 10 9 10 C10 8 10 8 11 7 C10.071875 6.87625 9.14375 6.7525 8.1875 6.625 C5 6 5 6 2 4 C-0.11280345 3.36707617 -0.11280345 3.36707617 -2 3 C-1.34 2.67 -0.68 2.34 0 2 C0 1.34 0 0.68 0 0 Z " fill="#CD9F2F" transform="translate(36,10)"/>
<path d="M0 0 C4.455 0.99 4.455 0.99 9 2 C9 2.66 9 3.32 9 4 C10.32 4.33 11.64 4.66 13 5 C13.33 3.68 13.66 2.36 14 1 C15.65 2.65 17.3 4.3 19 6 C16.08175756 7.66674321 14.02405621 8.2432008 10.671875 8.1953125 C9.87265625 8.18886719 9.0734375 8.18242188 8.25 8.17578125 C7.425 8.15902344 6.6 8.14226563 5.75 8.125 C4.90953125 8.11597656 4.0690625 8.10695313 3.203125 8.09765625 C1.13529396 8.07415817 -0.93238995 8.03828908 -3 8 C-2.67 7.34 -2.34 6.68 -2 6 C0.64 6 3.28 6 6 6 C5.01 5.195625 4.02 4.39125 3 3.5625 C2.01 2.716875 1.02 1.87125 0 1 C0 0.67 0 0.34 0 0 Z " fill="#CE9C25" transform="translate(42,49)"/>
<path d="M0 0 C1.32 0.66 2.64 1.32 4 2 C3.67 3.65 3.34 5.3 3 7 C4.32 7 5.64 7 7 7 C6.67 5.68 6.34 4.36 6 3 C6.66 3.33 7.32 3.66 8 4 C8 5.32 8 6.64 8 8 C8.66 8 9.32 8 10 8 C9.67 8.66 9.34 9.32 9 10 C8.34 9.67 7.68 9.34 7 9 C6.67 9.99 6.34 10.98 6 12 C3.625 11.75 3.625 11.75 1 11 C-0.125 9.125 -0.125 9.125 -1 7 C-2.5412312 5.29078411 -2.5412312 5.29078411 -4 4 C-2.68 2.68 -1.36 1.36 0 0 Z " fill="#C08E1D" transform="translate(6,7)"/>
<path d="M0 0 C1.32 0.33 2.64 0.66 4 1 C3.67 1.99 3.34 2.98 3 4 C2.01 4.33 1.02 4.66 0 5 C0.66 5.33 1.32 5.66 2 6 C2 6.66 2 7.32 2 8 C8.27 8.33 14.54 8.66 21 9 C21 9.33 21 9.66 21 10 C11.1 10 1.2 10 -9 10 C-9 9.67 -9 9.34 -9 9 C-5.535 8.505 -5.535 8.505 -2 8 C-2.66 6.68 -3.32 5.36 -4 4 C-4.66 4 -5.32 4 -6 4 C-5.67 3.34 -5.34 2.68 -5 2 C-4.01 2.33 -3.02 2.66 -2 3 C-1.34 2.01 -0.68 1.02 0 0 Z " fill="#D8A830" transform="translate(17,47)"/>
<path d="M0 0 C1.65 0 3.3 0 5 0 C5.33 0.66 5.66 1.32 6 2 C8.05918301 2.49963048 8.05918301 2.49963048 10.4375 2.8125 C12.8984375 3.29296875 12.8984375 3.29296875 15 4 C16.5625 6.625 16.5625 6.625 17 9 C16.01 9 15.02 9 14 9 C13.34 7.68 12.68 6.36 12 5 C11.01 5 10.02 5 9 5 C8.67 5.99 8.34 6.98 8 8 C7.01 7.34 6.02 6.68 5 6 C4.01 6.33 3.02 6.66 2 7 C-0.6875 5.5625 -0.6875 5.5625 -3 4 C-2.34 3.01 -1.68 2.02 -1 1 C-1 1.99 -1 2.98 -1 4 C-0.01 3.67 0.98 3.34 2 3 C1.34 2.01 0.68 1.02 0 0 Z " fill="#BC8A17" transform="translate(44,8)"/>
<path d="M0 0 C2.875 -0.125 2.875 -0.125 6 0 C8 2 8 2 8.3125 4.5 C8.1578125 5.7375 8.1578125 5.7375 8 7 C4.77208445 9.1519437 3.71599191 9.20086443 0 9 C0 6.03 0 3.06 0 0 Z " fill="#C7972B" transform="translate(17,33)"/>
<path d="M0 0 C0.33 0.66 0.66 1.32 1 2 C1.66 2 2.32 2 3 2 C3.33 1.34 3.66 0.68 4 0 C4 0.66 4 1.32 4 2 C7.63 2 11.26 2 15 2 C15 2.99 15 3.98 15 5 C13.68 5 12.36 5 11 5 C10.34 6.32 9.68 7.64 9 9 C7.68 8.34 6.36 7.68 5 7 C5 6.34 5 5.68 5 5 C2.525 4.01 2.525 4.01 0 3 C0 2.01 0 1.02 0 0 Z " fill="#BA8715" transform="translate(6,42)"/>
<path d="M0 0 C1.98 0 3.96 0 6 0 C6.5534764 2.07553648 7 3.84365964 7 6 C6.34 6 5.68 6 5 6 C5 6.66 5 7.32 5 8 C6.65 7.67 8.3 7.34 10 7 C9.1875 8.9375 9.1875 8.9375 8 11 C7.01 11.33 6.02 11.66 5 12 C2.2289312 9.65408148 1.47940716 7.85223799 0.8125 4.3125 C0.65394531 3.50425781 0.49539062 2.69601563 0.33203125 1.86328125 C0.22246094 1.24839844 0.11289062 0.63351563 0 0 Z " fill="#C79422" transform="translate(39,30)"/>
<path d="M0 0 C0.66 0.33 1.32 0.66 2 1 C1.67 1.99 1.34 2.98 1 4 C4.47736026 7.78034623 4.47736026 7.78034623 9 10 C7.75 11.5 7.75 11.5 6 13 C4.68 13 3.36 13 2 13 C1.67 12.01 1.34 11.02 1 10 C0.34 10 -0.32 10 -1 10 C-2.38125018 7.23749964 -2.19079306 5.05268901 -2 2 C-1.34 1.34 -0.68 0.68 0 0 Z " fill="#CEA02D" transform="translate(2,8)"/>
<path d="M0 0 C2.375 -0.125 2.375 -0.125 5 0 C7 2 7 2 7.3125 4.5 C7.209375 5.325 7.10625 6.15 7 7 C4 9 4 9 0 9 C0 6.03 0 3.06 0 0 Z " fill="#C59423" transform="translate(17,22)"/>
<path d="M0 0 C0.99 0.33 1.98 0.66 3 1 C2.814375 1.763125 2.62875 2.52625 2.4375 3.3125 C1.77180827 6.08967375 1.77180827 6.08967375 3 9 C2.01 9 1.02 9 0 9 C-0.16687448 11.41645782 -0.16687448 11.41645782 0 14 C0.66 14.66 1.32 15.32 2 16 C1.01 16 0.02 16 -1 16 C-1.33 16.99 -1.66 17.98 -2 19 C-2.33 19 -2.66 19 -3 19 C-3 13.72 -3 8.44 -3 3 C-2.01 3.99 -1.02 4.98 0 6 C-0.2784375 4.7934375 -0.2784375 4.7934375 -0.5625 3.5625 C-0.706875 2.716875 -0.85125 1.87125 -1 1 C-0.67 0.67 -0.34 0.34 0 0 Z " fill="#BC8911" transform="translate(3,31)"/>
<path d="M0 0 C0.66 0 1.32 0 2 0 C2 0.66 2 1.32 2 2 C3.32 2 4.64 2 6 2 C6 2.66 6 3.32 6 4 C9.3 5.65 12.6 7.3 16 9 C16 9.33 16 9.66 16 10 C12.7 10 9.4 10 6 10 C5.67 9.01 5.34 8.02 5 7 C4.34 6.525625 3.68 6.05125 3 5.5625 C0.70810365 3.77195598 0.38878998 2.81872737 0 0 Z " fill="#BD8A16" transform="translate(34,46)"/>
<path d="M0 0 C0.99 0.33 1.98 0.66 3 1 C3.125 7.75 3.125 7.75 2 10 C0.35 9.67 -1.3 9.34 -3 9 C-3 8.34 -3 7.68 -3 7 C-3.99 6.67 -4.98 6.34 -6 6 C-4 4 -2 2 0 0 Z " fill="#BC8914" transform="translate(22,46)"/>
<path d="M0 0 C0.144375 1.11375 0.28875 2.2275 0.4375 3.375 C0.78372035 6.82142047 0.78372035 6.82142047 2 9 C1.34 9.66 0.68 10.32 0 11 C0.66 11.66 1.32 12.32 2 13 C-0.31 12.67 -2.62 12.34 -5 12 C-4.01 11.67 -3.02 11.34 -2 11 C-2 9.68 -2 8.36 -2 7 C-2.66 6.67 -3.32 6.34 -4 6 C-3.34 6 -2.68 6 -2 6 C-2.33 5.34 -2.66 4.68 -3 4 C-3.99 4 -4.98 4 -6 4 C-6 3.01 -6 2.02 -6 1 C-3.92446352 0.4465236 -2.15634036 0 0 0 Z " fill="#C89623" transform="translate(27,43)"/>
<path d="M0 0 C0.66 0 1.32 0 2 0 C2 4.62 2 9.24 2 14 C1.01 13.67 0.02 13.34 -1 13 C-1 12.34 -1 11.68 -1 11 C-2.32 10.34 -3.64 9.68 -5 9 C-4.34 8.34 -3.68 7.68 -3 7 C-2.01 7.33 -1.02 7.66 0 8 C-0.66 6.68 -1.32 5.36 -2 4 C-1.34 3.67 -0.68 3.34 0 3 C0 2.01 0 1.02 0 0 Z " fill="#CC9B2B" transform="translate(9,22)"/>
<path d="M0 0 C3.3 0 6.6 0 10 0 C9.01 0.33 8.02 0.66 7 1 C6.67 1.99 6.34 2.98 6 4 C5.34 4 4.68 4 4 4 C3.67 9.61 3.34 15.22 3 21 C2.67 21 2.34 21 2 21 C2 14.73 2 8.46 2 2 C1.34 2 0.68 2 0 2 C0 1.34 0 0.68 0 0 Z " fill="#261B0E" transform="translate(9,20)"/>
<path d="M0 0 C0.33 0.66 0.66 1.32 1 2 C0.34 2 -0.32 2 -1 2 C-0.67 3.98 -0.34 5.96 0 8 C0.66 8 1.32 8 2 8 C2.66 7.01 3.32 6.02 4 5 C4 6.98 4 8.96 4 11 C1.525 10.01 1.525 10.01 -1 9 C-1 8.34 -1 7.68 -1 7 C-3.64 7.33 -6.28 7.66 -9 8 C-8.00355711 5.50889277 -7.42031674 4.24405488 -5.0625 2.875 C-4.381875 2.58625 -3.70125 2.2975 -3 2 C-2.01 1.34 -1.02 0.68 0 0 Z " fill="#B98611" transform="translate(60,23)"/>
<path d="M0 0 C2.76276177 0.52268466 5.3260876 1.10869587 8 2 C6.37633534 5.24732932 3.24612161 5.70155136 0 7 C-1.125 2.25 -1.125 2.25 0 0 Z " fill="#C09021" transform="translate(39,15)"/>
<path d="M0 0 C1.8125 0.1875 1.8125 0.1875 4 1 C5.75 3.5625 5.75 3.5625 7 6 C5.25 6.6875 5.25 6.6875 3 7 C0.75 5.5625 0.75 5.5625 -1 4 C-0.67 2.68 -0.34 1.36 0 0 Z " fill="#D0A339" transform="translate(1,49)"/>
<path d="M0 0 C3 0.4375 3 0.4375 4.9375 2.25 C6 4.4375 6 4.4375 5 7.4375 C2.84526801 5.8573632 0.89353366 4.33103366 -1 2.4375 C-3.60280568 2.75791397 -3.60280568 2.75791397 -6 3.4375 C-4.10442866 0.91007155 -3.19410622 0.46580716 0 0 Z " fill="#C69829" transform="translate(47,21.5625)"/>
<path d="M0 0 C2.97 0.495 2.97 0.495 6 1 C7.125 7.75 7.125 7.75 6 10 C5.34 10 4.68 10 4 10 C3.566875 8.2984375 3.566875 8.2984375 3.125 6.5625 C2.75375 5.386875 2.3825 4.21125 2 3 C1.34 2.67 0.68 2.34 0 2 C0 1.34 0 0.68 0 0 Z " fill="#C89726" transform="translate(57,45)"/>
<path d="M0 0 C1.65 1.65 3.3 3.3 5 5 C2.24075815 6.80411967 1.11027897 7.0127245 -2.25 6.625 C-3.1575 6.41875 -4.065 6.2125 -5 6 C-3.35 4.02 -1.7 2.04 0 0 Z " fill="#CD9D2B" transform="translate(33,37)"/>
<path d="M0 0 C1.65 0.33 3.3 0.66 5 1 C4.67 1.99 4.34 2.98 4 4 C4.66 4 5.32 4 6 4 C6 4.66 6 5.32 6 6 C5.01 6.33 4.02 6.66 3 7 C1.68 5.35 0.36 3.7 -1 2 C-0.67 1.34 -0.34 0.68 0 0 Z " fill="#BF8D1A" transform="translate(18,8)"/>
<path d="M0 0 C1.485 0.99 1.485 0.99 3 2 C3.66 1.67 4.32 1.34 5 1 C5.33 2.32 5.66 3.64 6 5 C3.69 5.33 1.38 5.66 -1 6 C-0.67 4.02 -0.34 2.04 0 0 Z " fill="#B7861A" transform="translate(18,36)"/>
<path d="M0 0 C0.99 0 1.98 0 3 0 C3.33 0.99 3.66 1.98 4 3 C3.01 3.495 3.01 3.495 2 4 C2.99 4.66 3.98 5.32 5 6 C3.35 6 1.7 6 0 6 C0 5.34 0 4.68 0 4 C-1.32 3.34 -2.64 2.68 -4 2 C-3.01 2 -2.02 2 -1 2 C-0.67 1.34 -0.34 0.68 0 0 Z " fill="#CA9927" transform="translate(53,13)"/>
<path d="M0 0 C2.0625 0.4375 2.0625 0.4375 4 1 C4 2.98 4 4.96 4 7 C3.01 6.67 2.02 6.34 1 6 C-0.1875 3.4375 -0.1875 3.4375 -1 1 C-0.67 0.67 -0.34 0.34 0 0 Z " fill="#19130A" transform="translate(51,20)"/>
<path d="M0 0 C1.11375 0.350625 2.2275 0.70125 3.375 1.0625 C6.80264476 2.37239331 6.80264476 2.37239331 9 1 C8.67 2.65 8.34 4.3 8 6 C6.68 5.67 5.36 5.34 4 5 C4 4.34 4 3.68 4 3 C2.68 2.67 1.36 2.34 0 2 C0 1.34 0 0.68 0 0 Z " fill="#B5800D" transform="translate(47,48)"/>
<path d="M0 0 C3.37462715 0.54723683 5.08235 1.0549 8 3 C8 3.99 8 4.98 8 6 C4.08597051 4.73058503 2.20927127 3.48832306 0 0 Z " fill="#D0A133" transform="translate(42,49)"/>
<path d="M0 0 C1 2 2 4 3 6 C3.99 6.66 4.98 7.32 6 8 C4.02 8.33 2.04 8.66 0 9 C0 6.03 0 3.06 0 0 Z " fill="#BE9533" transform="translate(17,22)"/>
<path d="M0 0 C2 2 2 2 3 5 C2.34 5.99 1.68 6.98 1 8 C1.66 8 2.32 8 3 8 C2.34 9.65 1.68 11.3 1 13 C0.67 13 0.34 13 0 13 C0 8.71 0 4.42 0 0 Z " fill="#BF8D10" transform="translate(0,20)"/>
<path d="M0 0 C0.33 0 0.66 0 1 0 C1 4.29 1 8.58 1 13 C-2.18518519 6.62962963 -2.18518519 6.62962963 -1.0625 2.8125 C-0.711875 1.884375 -0.36125 0.95625 0 0 Z " fill="#C69317" transform="translate(63,38)"/>
<path d="M0 0 C0 2.97 0 5.94 0 9 C-0.66 8.67 -1.32 8.34 -2 8 C-2.33333333 6 -2.66666667 4 -3 2 C-3.66 1.67 -4.32 1.34 -5 1 C-3 0 -3 0 0 0 Z " fill="#C29118" transform="translate(64,14)"/>
<path d="M0 0 C0.66 0 1.32 0 2 0 C2 0.66 2 1.32 2 2 C3.32 2 4.64 2 6 2 C6 3.32 6 4.64 6 6 C4.35 5.67 2.7 5.34 1 5 C0.67 3.35 0.34 1.7 0 0 Z " fill="#B78310" transform="translate(34,46)"/>
<path d="M0 0 C0.33 0.66 0.66 1.32 1 2 C2.65 1.67 4.3 1.34 6 1 C5.1875 2.9375 5.1875 2.9375 4 5 C3.01 5.33 2.02 5.66 1 6 C0.34 5.34 -0.32 4.68 -1 4 C-0.625 1.875 -0.625 1.875 0 0 Z " fill="#B48414" transform="translate(43,36)"/>
<path d="M0 0 C1.98 0 3.96 0 6 0 C7.125 3.75 7.125 3.75 6 6 C3.96166576 4.7260411 1.96147874 3.38938077 0 2 C0 1.34 0 0.68 0 0 Z " fill="#B9891A" transform="translate(39,30)"/>
<path d="M0 0 C2 3.75 2 3.75 2 6 C1.01 6 0.02 6 -1 6 C-1 5.34 -1 4.68 -1 4 C-1.66 4 -2.32 4 -3 4 C-3.33 3.01 -3.66 2.02 -4 1 C-2.68 0.67 -1.36 0.34 0 0 Z " fill="#CFA02F" transform="translate(62,19)"/>
<path d="M0 0 C0.99 0.99 1.98 1.98 3 3 C2.67 3.99 2.34 4.98 2 6 C0.68 6 -0.64 6 -2 6 C-1.34 4.02 -0.68 2.04 0 0 Z " fill="#C79420" transform="translate(33,46)"/>
</svg>
